<svg width="1000" height="1000" viewBox="0 0 1000 1000" fill="none" xmlns="http://www.w3.org/2000/svg">
<rect width="1000" height="1000" rx="100" fill="black"/>
<path d="M223.957 700V699.5C168.957 692.5 130.457 649 130.457 591V466.5C130.457 434.5 153.957 431.5 165.957 431.5V421.5H150.957C138.957 421.5 115.457 421 115.457 391.5V350H205.457V625.5H245.457L324.957 350H402.957L323.457 625.5H348.957V700.5H239.957C235.957 700.5 232.457 700.5 228.457 700H223.957ZM631.191 459.5C631.191 396.5 676.691 350.5 739.691 350H824.691V425H799.191L878.691 700H800.691L721.191 425H706.191V700H572.691L508.191 477V700H433.191V466.5C433.191 434.5 456.691 431.5 468.691 431.5V421.5H453.691C441.691 421.5 418.191 421 418.191 391.5V350H549.691L631.191 632.5V459.5Z" fill="white"/>
</svg>
