<svg width="200" height="200" viewBox="0 0 200 200" fill="none" xmlns="http://www.w3.org/2000/svg">
<rect width="200" height="200" rx="20" fill="black"/>
<path d="M44.3914 140V139.9C33.3914 138.5 25.6914 129.8 25.6914 118.2V93.3C25.6914 86.9 30.3914 86.3 32.7914 86.3V84.3H29.7914C27.3914 84.3 22.6914 84.2 22.6914 78.3V70H40.6914V125.1H48.6914L64.5914 70H80.1914L64.2914 125.1H69.3914V140.1H47.5914C46.7914 140.1 46.0914 140.1 45.2914 140H44.3914ZM125.838 91.9C125.838 79.3 134.938 70.1 147.538 70H164.538V85H159.438L175.338 140H159.738L143.838 85H140.838V140H114.138L101.238 95.4V140H86.2383V93.3C86.2383 86.9 90.9383 86.3 93.3383 86.3V84.3H90.3383C87.9383 84.3 83.2383 84.2 83.2383 78.3V70H109.538L125.838 126.5V91.9Z" fill="white"/>
</svg>
